<svg width="16" height="16" viewBox="0 0 16 16" fill="none" xmlns="http://www.w3.org/2000/svg">
<g clip-path="url(#clip0_33_1972)">
<path fill-rule="evenodd" clip-rule="evenodd" d="M12 5.99999C12.2652 5.99999 12.5196 6.10535 12.7071 6.29288C12.8946 6.48042 13 6.73477 13 6.99999H13.5C14.163 6.99999 14.7989 7.26338 15.2678 7.73222C15.7366 8.20106 16 8.83695 16 9.49999C16 10.163 15.7366 10.7989 15.2678 11.2678C14.7989 11.7366 14.163 12 13.5 12H12.898C12.7006 12.9635 12.2234 13.8475 11.5262 14.5412C10.8289 15.2349 9.94254 15.7075 8.97798 15.9C8.59798 15.976 8.17198 15.992 7.60798 15.996H6.38798C5.82698 15.992 5.40098 15.976 5.01798 15.9C4.04869 15.7048 3.15864 15.2276 2.45948 14.5285C1.76033 13.8293 1.28321 12.9393 1.08798 11.97C0.986984 11.463 0.991984 10.88 0.991984 9.98999V6.98999C0.991984 6.72477 1.09734 6.47042 1.28488 6.28288C1.47241 6.09535 1.72677 5.98999 1.99198 5.98999H11.992L12 5.99999ZM1.99998 9.99999C1.99998 10.929 1.99998 11.39 2.07698 11.78C2.23039 12.5556 2.61075 13.2681 3.1698 13.8272C3.72885 14.3862 4.44139 14.7666 5.21698 14.92C5.60298 14.997 6.06798 14.997 6.99698 14.997C7.92698 14.997 8.38698 14.997 8.77698 14.92C9.55258 14.7666 10.2651 14.3862 10.8242 13.8272C11.3832 13.2681 11.7636 12.5556 11.917 11.78C11.994 11.394 11.994 10.929 11.994 9.99999V6.99999H1.99398V9.99999H1.99998ZM13 10.609C12.9987 10.747 12.996 10.8773 12.992 11H13.5C13.8978 11 14.2793 10.842 14.5606 10.5607C14.8419 10.2793 15 9.89782 15 9.49999C15 9.10217 14.8419 8.72063 14.5606 8.43933C14.2793 8.15803 13.8978 7.99999 13.5 7.99999H13V10.609Z" fill="black"/>
<path d="M1.38001 0.0149916C1.50864 -0.0170624 1.64473 0.00327487 1.75837 0.0715325C1.87201 0.13979 1.95389 0.250381 1.98601 0.378992L2.01701 0.503992C2.12701 0.945992 2.39901 1.33099 2.77801 1.58399C3.36401 1.97399 3.78801 2.56999 3.95801 3.25399L3.98901 3.37999C4.01768 3.50741 3.99536 3.64099 3.92682 3.75216C3.85828 3.86333 3.74896 3.94328 3.62224 3.97489C3.49552 4.0065 3.36146 3.98728 3.24873 3.92133C3.136 3.85538 3.05355 3.74795 3.01901 3.62199L2.98901 3.49699C2.87754 3.05504 2.60601 2.67019 2.22701 2.41699C1.63997 2.02615 1.21935 1.43086 1.04701 0.746992L1.01601 0.619992C0.984255 0.491505 1.00474 0.355671 1.07297 0.242262C1.1412 0.128854 1.25162 0.0471257 1.38001 0.0149916ZM4.38001 0.0149916C4.50864 -0.0170624 4.64473 0.00327487 4.75837 0.0715325C4.87201 0.13979 4.95389 0.250381 4.98601 0.378992L5.01701 0.503992C5.12701 0.945992 5.39901 1.33099 5.77801 1.58399C6.36401 1.97399 6.78801 2.56999 6.95801 3.25399L6.98901 3.37999C7.01768 3.50741 6.99536 3.64099 6.92682 3.75216C6.85828 3.86333 6.74896 3.94328 6.62224 3.97489C6.49552 4.0065 6.36146 3.98728 6.24873 3.92133C6.136 3.85538 6.05355 3.74795 6.01901 3.62199L5.98901 3.49699C5.87754 3.05504 5.60601 2.67019 5.22701 2.41699C4.63997 2.02615 4.21934 1.43086 4.04701 0.746992L4.01601 0.619992C3.98425 0.491505 4.00474 0.355671 4.07297 0.242262C4.1412 0.128854 4.25162 0.0471257 4.38001 0.0149916ZM7.38001 0.0149916C7.50864 -0.0170624 7.64473 0.00327487 7.75837 0.0715325C7.87201 0.13979 7.95389 0.250381 7.98601 0.378992L8.01701 0.503992C8.12701 0.945992 8.39901 1.33099 8.77801 1.58399C9.36401 1.97399 9.78801 2.56999 9.95801 3.25399L9.98901 3.37999C10.0177 3.50741 9.99536 3.64099 9.92682 3.75216C9.85828 3.86333 9.74896 3.94328 9.62224 3.97489C9.49552 4.0065 9.36146 3.98728 9.24873 3.92133C9.136 3.85538 9.05355 3.74795 9.01901 3.62199L8.98901 3.49699C8.87754 3.05504 8.60601 2.67019 8.22701 2.41699C7.63997 2.02615 7.21935 1.43086 7.04701 0.746992L7.01601 0.619992C6.98425 0.491505 7.00474 0.355671 7.07297 0.242262C7.1412 0.128854 7.25162 0.0471257 7.38001 0.0149916Z" fill="black"/>
</g>
<defs>
<clipPath id="clip0_33_1972">
<rect width="16" height="16" fill="white"/>
</clipPath>
</defs>
</svg>
