<svg width="12" height="16" viewBox="0 0 12 16" fill="none" xmlns="http://www.w3.org/2000/svg">
<path d="M4.7 5C4.24913 5 3.81673 5.17911 3.49792 5.49792C3.17911 5.81673 3 6.24913 3 6.7C3 6.87072 3.03363 7.03977 3.09896 7.19749C3.16429 7.35521 3.26005 7.49852 3.38076 7.61924C3.50148 7.73995 3.64479 7.83571 3.80251 7.90104C3.96024 7.96637 4.12928 8 4.3 8H7.7C7.87072 8 8.03977 7.96637 8.19749 7.90104C8.35521 7.83571 8.49852 7.73995 8.61924 7.61924C8.73995 7.49852 8.83571 7.35521 8.90104 7.19749C8.96637 7.03977 9 6.87072 9 6.7C9 6.24913 8.82089 5.81673 8.50208 5.49792C8.18327 5.17911 7.75087 5 7.3 5H4.7ZM4 6.7C4 6.51435 4.07375 6.3363 4.20503 6.20503C4.3363 6.07375 4.51435 6 4.7 6H7.3C7.48565 6 7.6637 6.07375 7.79497 6.20503C7.92625 6.3363 8 6.51435 8 6.7C8 6.77956 7.96839 6.85587 7.91213 6.91213C7.85587 6.96839 7.77956 7 7.7 7H4.3C4.22044 7 4.14413 6.96839 4.08787 6.91213C4.03161 6.85587 4 6.77956 4 6.7ZM6 0C5.33696 0 4.70107 0.263392 4.23223 0.732233C3.76339 1.20107 3.5 1.83696 3.5 2.5V2.544C2.4554 3.02279 1.57026 3.79148 0.949804 4.75868C0.32935 5.72588 -0.000314598 6.8509 2.25276e-07 8V13C2.25276e-07 13.7956 0.316071 14.5587 0.87868 15.1213C1.44129 15.6839 2.20435 16 3 16H9C9.79565 16 10.5587 15.6839 11.1213 15.1213C11.6839 14.5587 12 13.7956 12 13V8C12.0003 6.8509 11.6706 5.72588 11.0502 4.75868C10.4297 3.79148 9.5446 3.02279 8.5 2.544V2.5C8.5 1.83696 8.23661 1.20107 7.76777 0.732233C7.29893 0.263392 6.66304 0 6 0ZM11 10H1V8C1 6.67392 1.52678 5.40215 2.46447 4.46447C3.40215 3.52678 4.67392 3 6 3C7.32608 3 8.59785 3.52678 9.53553 4.46447C10.4732 5.40215 11 6.67392 11 8V10ZM3 12.5C3 12.6326 3.05268 12.7598 3.14645 12.8536C3.24022 12.9473 3.36739 13 3.5 13C3.63261 13 3.75979 12.9473 3.85355 12.8536C3.94732 12.7598 4 12.6326 4 12.5V11H11V13C11 13.5304 10.7893 14.0391 10.4142 14.4142C10.0391 14.7893 9.53043 15 9 15H3C2.46957 15 1.96086 14.7893 1.58579 14.4142C1.21071 14.0391 1 13.5304 1 13V11H3V12.5ZM6 2C5.50578 1.99939 5.01339 2.05985 4.534 2.18C4.60654 1.8451 4.79156 1.54514 5.05828 1.33001C5.325 1.11488 5.65734 0.99756 6 0.99756C6.34266 0.99756 6.675 1.11488 6.94172 1.33001C7.20844 1.54514 7.39346 1.8451 7.466 2.18C6.996 2.063 6.506 2 6 2Z" fill="black"/>
</svg>
