<svg width="18" height="18" viewBox="0 0 18 18" fill="none" xmlns="http://www.w3.org/2000/svg">
<path d="M16.99 0.594819C16.7131 0.35884 16.3878 0.186409 16.0371 0.0896586C15.6864 -0.00709169 15.3187 -0.0258109 14.96 0.0348185L7.08 1.36482C6.49718 1.46006 5.96748 1.76015 5.58618 2.21111C5.20489 2.66206 4.99703 3.23428 5 3.82482V12.6448C4.48782 12.1867 3.83389 11.9183 3.14757 11.8845C2.46124 11.8507 1.78411 12.0536 1.22939 12.4591C0.674681 12.8647 0.276009 13.4484 0.100039 14.1126C-0.0759323 14.7769 -0.0185356 15.4814 0.262632 16.1084C0.543799 16.7354 1.03169 17.2469 1.64474 17.5573C2.25778 17.8677 2.95881 17.9583 3.63062 17.8139C4.30243 17.6694 4.90429 17.2987 5.33556 16.7638C5.76684 16.2288 6.00139 15.562 6 14.8748V6.32482L16.88 4.49482V10.7148C16.334 10.2157 15.6198 9.94071 14.88 9.94482C14.2867 9.94482 13.7066 10.1208 13.2133 10.4504C12.7199 10.7801 12.3354 11.2486 12.1084 11.7968C11.8813 12.3449 11.8219 12.9481 11.9376 13.5301C12.0534 14.112 12.3391 14.6466 12.7587 15.0661C13.1782 15.4857 13.7128 15.7714 14.2947 15.8872C14.8767 16.0029 15.4799 15.9435 16.028 15.7165C16.5762 15.4894 17.0448 15.1049 17.3744 14.6115C17.7041 14.1182 17.88 13.5382 17.88 12.9448V2.50482C17.879 2.14097 17.7988 1.7817 17.6451 1.4519C17.4915 1.1221 17.2679 0.829652 16.99 0.594819ZM3 16.8748C2.60443 16.8748 2.21775 16.7575 1.88886 16.5378C1.55996 16.318 1.30361 16.0056 1.15224 15.6402C1.00086 15.2747 0.961255 14.8726 1.03842 14.4846C1.1156 14.0967 1.30608 13.7403 1.58578 13.4606C1.86549 13.1809 2.22185 12.9904 2.60982 12.9132C2.99778 12.8361 3.39991 12.8757 3.76536 13.0271C4.13082 13.1784 4.44317 13.4348 4.66293 13.7637C4.8827 14.0926 5 14.4793 5 14.8748C5.00092 15.1377 4.94982 15.3982 4.84964 15.6413C4.74946 15.8843 4.60217 16.1052 4.41627 16.2911C4.23037 16.477 4.00952 16.6243 3.76646 16.7245C3.52339 16.8246 3.2629 16.8757 3 16.8748ZM14.88 14.9448C14.4844 14.9448 14.0978 14.8275 13.7689 14.6078C13.44 14.388 13.1836 14.0756 13.0322 13.7102C12.8809 13.3447 12.8413 12.9426 12.9184 12.5546C12.9956 12.1667 13.1861 11.8103 13.4658 11.5306C13.7455 11.2509 14.1019 11.0604 14.4898 10.9832C14.8778 10.9061 15.2799 10.9457 15.6454 11.0971C16.0108 11.2484 16.3232 11.5048 16.5429 11.8337C16.7627 12.1626 16.88 12.5493 16.88 12.9448C16.88 13.4753 16.6693 13.984 16.2942 14.359C15.9191 14.7341 15.4104 14.9448 14.88 14.9448ZM16.88 3.48482L6 5.31482V3.82482C5.99809 3.47079 6.12315 3.12781 6.35249 2.8581C6.58184 2.58839 6.90026 2.40983 7.25 2.35482L15.13 1.02482C15.3453 0.987184 15.5663 0.997298 15.7773 1.05445C15.9883 1.11159 16.1842 1.21438 16.3511 1.35555C16.518 1.49671 16.6519 1.67281 16.7433 1.87139C16.8347 2.06998 16.8814 2.28622 16.88 2.50482V3.48482Z" fill="black"/>
</svg>
