<svg width="94" height="94" viewBox="0 0 94 94" fill="none" xmlns="http://www.w3.org/2000/svg">
<g clip-path="url(#clip0_34_2184)">
<path fill-rule="evenodd" clip-rule="evenodd" d="M51.7 75.2C54.193 75.2 56.584 76.1904 58.3468 77.9532C60.1096 79.716 61.1 82.107 61.1 84.6C61.1 87.093 60.1096 89.484 58.3468 91.2468C56.584 93.0096 54.193 94 51.7 94C49.207 94 46.816 93.0096 45.0532 91.2468C43.2904 89.484 42.3 87.093 42.3 84.6C42.3 82.107 43.2904 79.716 45.0532 77.9532C46.816 76.1904 49.207 75.2 51.7 75.2ZM22.2827 61.1C25.399 61.1 28.3877 62.3379 30.5912 64.5415C32.7948 66.745 34.0327 69.7337 34.0327 72.85C34.0327 75.9663 32.7948 78.9549 30.5912 81.1585C28.3877 83.3621 25.399 84.6 22.2827 84.6C19.1664 84.6 16.1777 83.3621 13.9742 81.1585C11.7706 78.9549 10.5327 75.9663 10.5327 72.85C10.5327 69.7337 11.7706 66.745 13.9742 64.5415C16.1777 62.3379 19.1664 61.1 22.2827 61.1ZM76.6993 63.45C79.1923 63.45 81.5833 64.4404 83.3461 66.2032C85.1089 67.966 86.0993 70.357 86.0993 72.85C86.0993 75.343 85.1089 77.734 83.3461 79.4968C81.5833 81.2596 79.1923 82.25 76.6993 82.25C74.2063 82.25 71.8153 81.2596 70.0525 79.4968C68.2896 77.734 67.2993 75.343 67.2993 72.85C67.2993 70.357 68.2896 67.966 70.0525 66.2032C71.8153 64.4404 74.2063 63.45 76.6993 63.45ZM86.95 43.7993C88.8198 43.7993 90.613 44.5421 91.9351 45.8642C93.2572 47.1863 94 48.9795 94 50.8493C94 52.7191 93.2572 54.5123 91.9351 55.8344C90.613 57.1565 88.8198 57.8993 86.95 57.8993C85.0802 57.8993 83.287 57.1565 81.9649 55.8344C80.6428 54.5123 79.9 52.7191 79.9 50.8493C79.9 48.9795 80.6428 47.1863 81.9649 45.8642C83.287 44.5421 85.0802 43.7993 86.95 43.7993ZM11.75 28.2C14.8663 28.2 17.855 29.4379 20.0585 31.6415C22.2621 33.845 23.5 36.8337 23.5 39.95C23.5 43.0663 22.2621 46.055 20.0585 48.2585C17.855 50.4621 14.8663 51.7 11.75 51.7C8.63371 51.7 5.64505 50.4621 3.4415 48.2585C1.23794 46.055 0 43.0663 0 39.95C0 36.8337 1.23794 33.845 3.4415 31.6415C5.64505 29.4379 8.63371 28.2 11.75 28.2ZM83.5942 24.4729C84.8407 24.4729 86.0362 24.9681 86.9176 25.8495C87.799 26.7309 88.2942 27.9264 88.2942 29.1729C88.2942 30.4194 87.799 31.6149 86.9176 32.4963C86.0362 33.3777 84.8407 33.8729 83.5942 33.8729C82.3477 33.8729 81.1522 33.3777 80.2708 32.4963C79.3894 31.6149 78.8942 30.4194 78.8942 29.1729C78.8942 27.9264 79.3894 26.7309 80.2708 25.8495C81.1522 24.9681 82.3477 24.4729 83.5942 24.4729ZM37.6 0C41.3396 0 44.9259 1.48553 47.5702 4.12979C50.2145 6.77406 51.7 10.3604 51.7 14.1C51.7 17.8396 50.2145 21.4259 47.5702 24.0702C44.9259 26.7145 41.3396 28.2 37.6 28.2C33.8604 28.2 30.2741 26.7145 27.6298 24.0702C24.9855 21.4259 23.5 17.8396 23.5 14.1C23.5 10.3604 24.9855 6.77406 27.6298 4.12979C30.2741 1.48553 33.8604 0 37.6 0ZM72.85 14.1C73.4733 14.1 74.071 14.3476 74.5117 14.7883C74.9524 15.229 75.2 15.8267 75.2 16.45C75.2 17.0733 74.9524 17.671 74.5117 18.1117C74.071 18.5524 73.4733 18.8 72.85 18.8C72.2267 18.8 71.629 18.5524 71.1883 18.1117C70.7476 17.671 70.5 17.0733 70.5 16.45C70.5 15.8267 70.7476 15.229 71.1883 14.7883C71.629 14.3476 72.2267 14.1 72.85 14.1Z" fill="#E8EBFF"/>
</g>
<defs>
<clipPath id="clip0_34_2184">
<rect width="94" height="94" fill="white"/>
</clipPath>
</defs>
</svg>
